<?xml version="1.0" standalone="no"?>
<!DOCTYPE svg PUBLIC "-//W3C//DTD SVG 20010904//EN"
 "http://www.w3.org/TR/2001/REC-SVG-20010904/DTD/svg10.dtd">
<svg version="1.0" xmlns="http://www.w3.org/2000/svg"
 width="16.000000pt" height="16.000000pt" viewBox="0 0 16.000000 16.000000"
 preserveAspectRatio="xMidYMid meet">
<metadata>
Created by potrace 1.11, written by Peter Selinger 2001-2013
</metadata>
<g transform="translate(0.000000,16.000000) scale(0.006154,-0.006154)"
fill="#000000" stroke="none">
<path d="M1083 2554 c-513 -80 -924 -490 -1007 -1004 -14 -91 -16 -318 -2
-380 6 -25 29 -131 31 -140 12 -61 90 -241 126 -291 10 -14 19 -32 21 -40 2
-8 11 -21 20 -30 10 -9 18 -21 18 -28 0 -6 5 -11 10 -11 6 0 10 -10 10 -22 0
-12 3 -18 7 -15 3 4 17 -6 30 -21 59 -66 95 -102 123 -122 23 -17 29 -27 25
-43 -5 -17 -4 -19 4 -7 8 12 13 12 23 2 10 -10 10 -15 -2 -22 -8 -5 -10 -10
-5 -10 6 0 16 5 21 10 7 7 20 2 39 -16 16 -14 33 -27 39 -28 6 -1 30 -14 53
-29 24 -15 47 -27 53 -27 6 0 8 -5 5 -10 -4 -6 -9 -9 -13 -7 -4 2 -15 -4 -24
-14 -16 -17 -16 -18 2 -16 10 1 17 4 15 8 -3 3 6 11 19 17 18 8 29 7 45 -4 11
-8 21 -12 21 -8 0 3 7 1 15 -6 15 -13 21 -35 7 -26 -4 2 -14 0 -22 -6 -12 -8
-12 -9 3 -4 16 5 22 -5 18 -28 -1 -5 5 -6 14 -2 8 3 21 8 28 11 7 3 21 -2 32
-10 19 -16 19 -16 -7 -10 -16 3 -28 2 -28 -3 0 -4 18 -9 40 -9 22 0 40 3 40 9
0 5 6 3 14 -4 8 -7 12 -17 9 -23 -2 -5 2 -2 11 8 8 11 12 26 9 35 -5 11 -3 13
8 6 14 -9 34 -14 57 -16 17 -2 15 -13 -5 -29 -15 -12 -16 -12 -9 6 6 16 5 18
-5 7 -17 -16 -34 -16 -23 1 5 7 1 4 -8 -6 -10 -11 -18 -24 -17 -31 0 -7 2 -7
6 2 7 17 33 15 55 -5 23 -21 46 -25 70 -12 14 8 24 7 36 -3 13 -11 14 -11 8 1
-6 9 -5 12 5 9 8 -3 22 -1 31 3 12 7 20 4 27 -8 7 -14 5 -21 -12 -31 -22 -13
-22 -13 2 -6 17 4 21 3 16 -6 -5 -8 -4 -11 3 -6 6 3 9 18 6 31 -6 31 3 32 17
3 l10 -23 -5 23 c-3 14 3 27 15 35 10 8 17 16 14 19 -3 2 13 5 35 6 22 1 40
-2 40 -7 0 -5 -11 -8 -25 -7 -32 4 -66 -20 -58 -40 4 -12 10 -9 24 13 20 30
26 25 9 -7 -8 -16 -8 -18 5 -14 8 3 13 10 10 14 -3 4 2 13 10 20 13 11 15 9
13 -11 -2 -13 -10 -27 -18 -31 -12 -5 -11 -7 3 -7 12 -1 16 -6 11 -13 -4 -8
-3 -10 2 -5 5 5 9 14 9 19 0 17 23 21 28 6 2 -7 3 -5 1 5 -2 13 2 17 13 13 8
-3 19 -6 24 -6 6 0 7 -5 4 -10 -3 -6 -1 -10 5 -10 7 0 9 8 5 21 -6 18 -5 19
13 10 11 -6 23 -16 26 -23 3 -7 3 -2 0 12 l-5 25 21 -25 21 -25 -12 25 c-19
37 -20 57 -3 57 8 0 13 -6 10 -14 -3 -7 -3 -20 1 -29 4 -12 8 -13 14 -3 6 10
11 10 23 -1 9 -7 19 -10 23 -6 3 3 1 6 -6 6 -7 0 -9 5 -6 10 4 6 11 8 16 5 5
-4 19 1 31 9 27 19 38 20 34 4 -1 -7 -1 -10 1 -5 9 15 22 6 17 -11 -5 -16 -5
-16 6 1 6 9 16 15 21 12 5 -4 6 -11 3 -17 -5 -7 -2 -8 5 -4 7 5 10 10 8 12 -9
9 62 76 75 71 9 -4 9 -6 1 -6 -7 -1 -17 -11 -23 -23 -10 -21 -10 -21 3 -6 9
12 17 14 24 7 6 -6 9 -2 8 13 -3 29 5 44 15 28 6 -9 18 -5 46 14 40 27 62 27
28 0 -18 -14 -18 -15 4 -4 12 6 22 18 22 26 0 11 7 14 23 10 12 -3 16 -3 9 0
-6 3 -10 10 -6 15 3 5 15 3 27 -6 12 -8 26 -15 32 -15 5 0 -5 10 -22 21 -30
19 -36 39 -12 39 6 0 7 -4 4 -10 -4 -6 1 -7 11 -3 12 4 15 3 10 -5 -4 -7 -2
-12 4 -12 7 0 9 8 4 22 -6 21 -5 21 10 9 9 -8 14 -21 11 -30 -4 -11 -1 -10 15
4 l20 18 -21 23 -21 22 26 -2 c17 0 24 -6 21 -14 -2 -6 0 -12 5 -12 6 0 10 7
10 16 0 14 2 15 18 3 13 -11 12 -8 -3 11 -11 14 -23 27 -27 30 -4 3 2 11 13
18 16 10 20 10 18 0 -3 -27 2 -34 24 -35 l22 -2 -23 13 -23 12 25 12 c15 6 26
8 26 3 0 -5 -6 -12 -12 -14 -10 -4 -10 -6 0 -6 7 -1 15 6 18 14 4 8 11 12 18
8 6 -4 4 2 -4 12 -14 17 -13 18 3 12 16 -6 16 -5 1 18 -19 29 -19 29 -45 15
-27 -15 -24 4 4 27 12 10 35 35 51 55 15 21 31 36 35 34 3 -2 12 2 19 10 7 8
9 14 5 14 -4 0 1 7 11 15 11 8 17 15 13 15 -4 0 9 21 28 46 19 25 35 50 35 54
0 5 10 18 22 30 12 11 19 20 15 20 -4 0 0 15 10 33 9 17 18 37 18 42 1 6 7 8
15 6 8 -2 23 -3 32 -3 11 0 15 -5 11 -14 -3 -8 -8 -12 -11 -10 -3 3 -12 0 -20
-7 -13 -10 -15 -9 -9 5 3 10 2 20 -3 23 -5 3 -7 -9 -5 -27 3 -21 1 -28 -4 -19
-6 9 -11 10 -15 2 -4 -6 -2 -11 4 -11 6 0 8 -5 5 -10 -4 -6 -10 -8 -14 -6 -4
3 -8 -1 -8 -9 0 -8 4 -15 9 -15 4 0 3 -9 -4 -19 -7 -11 -16 -17 -20 -14 -5 2
-5 10 -1 17 4 7 0 3 -10 -7 -13 -15 -15 -23 -6 -33 11 -14 5 -34 -11 -34 -5 0
-7 8 -4 17 5 15 4 15 -4 3 -6 -8 -8 -18 -5 -24 3 -5 1 -6 -6 -2 -7 5 -10 2 -9
-6 2 -7 -2 -12 -9 -11 -7 2 -10 -4 -7 -12 4 -9 -1 -18 -11 -21 -12 -5 -13 -9
-5 -14 9 -5 6 -10 -9 -15 -12 -3 -18 -11 -15 -17 4 -7 2 -8 -4 -4 -12 7 -35
-27 -25 -38 3 -3 1 -6 -5 -6 -7 0 -12 5 -12 11 0 5 -5 7 -11 3 -7 -4 -8 -9 -1
-13 7 -4 5 -13 -4 -25 -8 -11 -14 -15 -14 -8 0 7 -7 9 -17 5 -15 -6 -14 -7 3
-13 23 -9 44 -2 41 12 -1 6 4 13 11 15 7 3 10 -1 6 -10 -6 -16 22 -31 31 -16
4 5 10 7 15 4 5 -3 12 -1 15 5 4 6 3 9 -2 8 -16 -4 -53 14 -48 23 4 5 14 5 26
-2 11 -5 25 -8 32 -5 7 2 4 5 -5 5 -10 1 -18 6 -18 12 0 5 5 7 10 4 6 -4 10
-3 9 2 -3 20 2 34 11 28 6 -4 7 -11 4 -17 -5 -7 -2 -8 5 -4 9 6 8 13 -5 27
-19 21 -13 24 17 8 18 -9 19 -8 11 8 -12 23 -9 66 6 71 7 2 9 -8 7 -27 -2 -17
1 -31 6 -31 6 0 8 4 5 9 -4 5 0 12 6 14 10 4 9 8 -2 17 -13 10 -13 11 2 7 9
-3 24 1 35 9 17 14 17 15 -2 6 -22 -10 -48 -5 -40 8 3 5 13 7 23 4 10 -4 13
-2 7 3 -5 4 -16 15 -23 24 -11 14 -9 17 13 17 22 0 24 -3 13 -16 -12 -14 -11
-14 9 -1 19 11 20 15 7 22 -21 12 1 38 30 33 11 -2 15 -1 9 1 -7 3 -13 9 -13
14 0 6 5 7 12 3 7 -5 8 -3 4 5 -6 9 -13 8 -27 -5 -10 -9 -19 -14 -19 -10 0 14
89 94 94 85 2 -5 3 -4 2 3 -2 7 -8 14 -14 14 -7 1 -16 2 -22 3 -5 0 -7 7 -4
15 3 8 1 17 -4 20 -5 3 -9 0 -8 -7 0 -6 -3 -12 -9 -12 -12 0 -7 29 6 33 5 2 6
8 3 14 -4 6 -1 9 6 6 7 -2 15 -15 17 -28 5 -34 11 -37 31 -15 16 18 16 18 -1
6 -9 -8 -17 -9 -17 -3 0 5 10 17 23 26 19 13 19 15 2 9 -18 -6 -18 -5 -6 10 9
11 10 17 2 17 -6 0 -11 4 -11 10 0 6 10 6 28 -1 17 -7 23 -7 17 0 -5 5 -22 12
-37 15 -25 4 -27 3 -18 -14 14 -25 13 -29 -7 -26 -9 2 -19 9 -21 16 -3 8 0 10
7 5 8 -4 12 -2 10 6 -3 27 1 40 11 34 6 -3 10 0 10 7 0 10 3 9 10 -2 5 -8 12
-11 17 -7 10 11 -17 27 -34 20 -7 -3 -13 0 -13 6 0 6 5 11 11 11 6 0 8 7 5 16
-3 8 -2 12 4 9 5 -3 7 7 5 25 -2 16 0 30 5 30 5 0 7 9 5 20 -2 11 0 20 6 20 5
0 7 11 3 25 -7 29 -2 31 31 9 21 -14 23 -14 21 0 -1 9 -6 19 -11 23 -4 4 -5 2
-1 -4 4 -7 3 -13 -2 -13 -20 0 -21 15 -2 35 20 21 20 21 -3 22 -12 0 -16 -1
-10 -4 10 -3 10 -8 -1 -19 -18 -17 -30 -18 -20 -2 11 18 12 48 2 48 -5 0 -6 5
-2 11 5 8 10 6 16 -5 5 -9 14 -16 21 -16 7 0 6 4 -3 10 -12 8 -12 10 3 16 9 3
17 11 17 16 0 6 -6 5 -15 -2 -26 -22 -35 -1 -31 75 3 50 0 75 -7 79 -9 3 -9 5
0 5 9 1 10 8 3 26 -6 16 -6 25 0 25 6 0 10 5 10 11 0 5 -4 7 -10 4 -5 -3 -10
-1 -10 4 0 6 5 11 11 11 6 0 3 7 -5 16 -22 22 -20 33 7 28 l22 -5 -22 10 c-16
7 -21 15 -16 27 5 13 3 15 -7 9 -10 -6 -12 -4 -7 8 3 10 2 17 -3 17 -6 0 -10
5 -10 11 0 5 3 8 8 6 4 -3 7 5 7 18 0 18 -3 21 -12 13 -17 -14 -17 4 0 21 10
10 9 12 -3 9 -8 -2 -15 4 -15 12 -1 8 -6 25 -13 38 -7 12 -9 22 -5 22 4 0 3 4
-3 8 -15 10 -44 88 -36 97 4 4 0 5 -8 3 -9 -2 -14 4 -14 15 1 9 -2 17 -7 17
-5 0 -16 15 -25 33 -9 17 -41 65 -70 104 -179 240 -450 411 -743 470 -106 21
-306 24 -418 7z m1362 -1633 c3 -5 2 -12 -3 -15 -5 -3 -9 1 -9 9 0 17 3 19 12
6z m-169 -315 c0 -14 -6 -22 -13 -19 -9 4 -9 9 0 24 15 24 15 24 13 -5z m-44
-68 c-16 -16 -42 -19 -36 -4 2 6 14 13 26 13 16 2 18 -1 10 -9z m-22 -58 c0
-5 -2 -10 -4 -10 -3 0 -8 5 -11 10 -3 6 -1 10 4 10 6 0 11 -4 11 -10z m-108
-42 c19 19 28 14 26 -12 -2 -17 -7 -23 -20 -21 -10 2 -18 -1 -18 -8 0 -8 -3
-8 -12 1 -9 9 -15 9 -27 -1 -12 -10 -14 -9 -8 6 3 9 4 17 1 17 -2 0 -9 -10
-13 -22 -6 -16 -4 -28 5 -39 13 -15 10 -16 -36 -14 l-51 3 29 -18 c32 -20 49
-40 34 -40 -5 0 -15 7 -22 15 -9 11 -16 12 -25 5 -6 -5 -15 -7 -18 -3 -9 8
-38 -17 -32 -28 3 -4 -8 -15 -25 -24 -16 -8 -30 -12 -30 -8 0 4 -6 -2 -14 -12
-13 -18 -14 -18 -24 2 -6 11 -8 24 -4 28 4 5 2 5 -5 1 -7 -4 -9 -14 -6 -23 4
-11 3 -14 -5 -9 -7 4 -12 14 -12 22 0 12 5 15 25 14 3 -1 13 6 21 15 9 8 19
13 24 10 4 -3 11 2 14 11 3 8 10 13 15 10 5 -3 11 1 15 9 3 8 12 15 19 15 8 0
22 9 32 20 9 10 20 19 24 18 20 -2 31 4 25 14 -4 7 -3 8 4 4 7 -4 12 -1 12 8
0 14 12 20 33 17 4 0 7 6 7 15 0 14 3 14 15 4 12 -10 19 -10 27 -2z m-312
-203 c7 -8 16 -12 21 -9 5 3 9 1 9 -5 0 -20 -19 -21 -30 -1 -6 11 -15 18 -20
15 -5 -3 -11 -1 -15 5 -10 16 21 12 35 -5z m-15 -7 c4 4 6 1 3 -7 -2 -8 -10
-17 -18 -19 -8 -3 -10 0 -5 9 4 8 -4 1 -19 -16 -14 -16 -25 -33 -26 -37 0 -4
-10 -12 -21 -19 -17 -9 -20 -8 -16 3 2 7 9 12 15 11 5 -1 12 4 15 11 4 10 -1
12 -16 9 -20 -4 -20 -3 -4 7 12 8 16 18 11 32 -3 11 -2 18 3 15 5 -3 15 -2 23
3 8 5 21 5 31 0 9 -5 20 -6 24 -2z m-925 -8 c0 -5 -2 -10 -4 -10 -3 0 -8 5
-11 10 -3 6 -1 10 4 10 6 0 11 -4 11 -10z m40 -15 c8 1 20 -1 25 -4 10 -6 17
-8 36 -10 5 0 7 -5 4 -11 -3 -5 -1 -10 6 -10 7 0 9 -3 5 -7 -4 -5 -13 0 -21
10 -12 17 -13 17 -20 0 -6 -17 -7 -17 -21 1 -10 14 -25 20 -49 19 -19 -1 -35
4 -35 9 0 6 7 8 15 5 8 -4 17 -1 21 5 4 5 9 6 13 1 3 -5 13 -8 21 -8z m790
-15 c-8 -5 -15 -15 -16 -22 -3 -38 -4 -39 -24 -28 -24 13 -41 10 -57 -10 -6
-8 -15 -11 -20 -7 -8 8 -9 12 -12 38 -1 8 -5 9 -14 0 -8 -6 -16 -10 -18 -8 -3
1 3 -6 13 -15 10 -9 14 -19 9 -22 -5 -4 -13 -1 -17 5 -5 8 -8 8 -14 0 -3 -7
-7 2 -7 19 0 28 13 37 50 31 4 0 7 5 7 11 0 9 4 8 10 -2 5 -8 7 -24 4 -35 -4
-18 -4 -18 6 -3 6 10 10 25 8 35 -2 12 5 17 22 18 14 1 35 7 45 13 25 13 48
-4 25 -18z m-592 -33 c15 6 15 5 3 -11 -10 -12 -16 -13 -21 -6 -5 8 -10 6 -14
-6 -4 -10 -4 -15 0 -11 4 4 13 2 21 -5 11 -9 13 -8 11 2 -2 7 3 15 11 18 9 3
11 0 6 -8 -6 -9 -3 -9 14 -1 24 13 28 23 6 15 -8 -4 -15 -2 -15 4 0 16 28 8
46 -14 12 -14 14 -15 11 -3 -4 14 3 16 44 16 51 0 59 -6 34 -27 -10 -9 -15 -9
-15 -1 0 6 5 11 12 11 6 0 9 2 6 5 -10 10 -38 -7 -31 -19 5 -7 2 -7 -8 1 -9 7
-20 9 -29 3 -9 -5 -19 -5 -27 2 -7 6 -13 6 -13 1 0 -5 -8 -10 -17 -11 -10 -1
-29 -3 -43 -5 -37 -5 -51 13 -31 39 9 12 17 18 19 14 2 -5 11 -6 20 -3z m378
-14 c-2 -17 -10 -29 -21 -31 -9 -2 -15 0 -12 5 3 5 -3 15 -15 22 -11 7 -17 8
-13 2 3 -6 1 -11 -4 -11 -6 0 -11 -5 -11 -11 0 -8 6 -7 17 2 14 12 16 12 12 0
-8 -25 -25 -23 -43 3 -15 24 -15 25 1 19 10 -4 14 -2 10 4 -4 6 9 9 33 9 22
-1 40 2 40 6 0 5 2 8 4 8 3 0 3 -12 2 -27z m-96 -29 c0 -8 -4 -12 -10 -9 -5 3
-10 1 -10 -6 0 -7 -2 -10 -5 -7 -8 7 5 38 16 38 5 0 9 -7 9 -16z"/>
<path d="M2070 420 c0 -5 5 -10 11 -10 5 0 7 5 4 10 -3 6 -8 10 -11 10 -2 0
-4 -4 -4 -10z"/>
<path d="M1970 361 c0 -4 14 -8 30 -8 17 0 28 2 25 5 -8 8 -55 11 -55 3z"/>
<path d="M1935 330 c-4 -6 -10 -8 -15 -5 -4 2 -13 -9 -20 -26 -10 -22 -15 -27
-21 -17 -6 9 -9 9 -9 1 0 -23 19 -23 31 -1 18 33 42 49 51 35 6 -9 8 -9 8 0 0
16 -17 26 -25 13z"/>
<path d="M1843 274 c-15 -16 -16 -24 -4 -24 8 0 24 30 19 35 -2 2 -9 -3 -15
-11z"/>
<path d="M1722 218 c-15 -15 -15 -28 0 -28 6 0 8 3 5 7 -4 3 -2 12 4 20 14 16
7 17 -9 1z"/>
<path d="M1653 198 c-13 -6 -23 -15 -23 -20 0 -4 0 -11 0 -15 0 -4 7 -8 16 -9
13 -2 14 0 5 9 -9 9 -6 16 11 29 26 20 23 22 -9 6z"/>
<path d="M1596 178 c3 -5 10 -6 15 -3 13 9 11 12 -6 12 -8 0 -12 -4 -9 -9z"/>
<path d="M2494 1499 c-4 -7 -3 -9 4 -5 6 3 13 -2 15 -11 4 -16 5 -16 6 -1 1
21 -15 32 -25 17z"/>
<path d="M2508 1453 c7 -3 16 -2 19 1 4 3 -2 6 -13 5 -11 0 -14 -3 -6 -6z"/>
<path d="M2500 1426 c0 -2 7 -7 16 -10 8 -3 12 -2 9 4 -6 10 -25 14 -25 6z"/>
<path d="M2495 1400 c-3 -5 -1 -10 4 -10 6 0 11 5 11 10 0 6 -2 10 -4 10 -3 0
-8 -4 -11 -10z"/>
<path d="M2495 1369 c-4 -6 -5 -11 -4 -12 2 -2 11 -8 20 -15 12 -9 16 -9 16 3
0 7 -3 14 -6 13 -19 -2 -24 4 -11 12 9 6 10 10 3 10 -6 0 -15 -5 -18 -11z"/>
<path d="M2493 1325 c0 -8 4 -15 9 -15 4 0 8 4 8 9 0 6 -4 12 -8 15 -5 3 -9
-1 -9 -9z"/>
<path d="M2487 1164 c3 -8 8 -12 11 -10 3 3 11 -2 19 -12 13 -15 13 -15 4 4
-12 25 -43 41 -34 18z"/>
<path d="M2474 1128 c-4 -7 -3 -8 4 -4 17 11 15 -9 -3 -24 -10 -9 -12 -16 -5
-25 6 -7 6 -15 -1 -22 -14 -14 -3 -33 19 -32 15 1 15 2 0 6 -10 2 -18 9 -18
14 0 6 6 7 13 3 6 -4 9 -4 5 1 -4 4 -3 16 3 26 8 15 6 18 -8 13 -14 -4 -13 -1
5 14 12 11 22 22 22 25 0 11 -30 15 -36 5z"/>
<path d="M2380 720 c8 -5 20 -10 25 -10 6 0 3 5 -5 10 -8 5 -19 10 -25 10 -5
0 -3 -5 5 -10z"/>
<path d="M2365 680 c-3 -6 1 -7 9 -4 18 7 21 14 7 14 -6 0 -13 -4 -16 -10z"/>
<path d="M330 560 c0 -5 5 -10 11 -10 5 0 7 5 4 10 -3 6 -8 10 -11 10 -2 0 -4
-4 -4 -10z"/>
<path d="M2175 549 c-4 -6 -5 -12 -2 -15 2 -3 7 2 10 11 7 17 1 20 -8 4z"/>
<path d="M375 500 c-3 -6 1 -7 9 -4 18 7 21 14 7 14 -6 0 -13 -4 -16 -10z"/>
<path d="M434 446 c1 -8 5 -18 8 -22 4 -3 5 1 4 10 -1 8 -5 18 -8 22 -4 3 -5
-1 -4 -10z"/>
<path d="M2160 450 c-12 -8 -12 -10 3 -16 9 -3 14 -11 10 -17 -3 -6 -1 -7 6
-3 9 6 9 11 -1 24 -11 13 -10 15 5 9 11 -4 16 -3 12 3 -8 12 -16 12 -35 0z"/>
<path d="M467 426 c-4 -10 -1 -13 8 -9 8 3 12 9 9 14 -7 12 -11 11 -17 -5z"/>
<path d="M537 356 c-4 -10 -1 -13 9 -9 15 6 19 23 5 23 -5 0 -11 -7 -14 -14z"/>
<path d="M558 333 c7 -3 16 -2 19 1 4 3 -2 6 -13 5 -11 0 -14 -3 -6 -6z"/>
<path d="M594 314 c1 -8 6 -17 11 -21 4 -4 5 -3 2 3 -9 16 18 25 32 11 6 -6
11 -18 11 -27 0 -9 3 -19 6 -23 10 -10 34 4 34 21 0 13 -3 12 -16 -4 -15 -19
-15 -19 -11 2 3 14 -3 26 -17 34 -28 18 -54 20 -52 4z"/>
<path d="M736 252 c-2 -4 2 -15 9 -25 11 -15 17 -16 34 -7 12 6 21 14 21 17 0
3 -3 3 -7 0 -3 -4 -12 -2 -20 5 -11 9 -12 7 -6 -8 6 -17 5 -17 -10 -5 -9 7
-14 17 -11 22 3 5 3 9 0 9 -3 0 -7 -3 -10 -8z"/>
<path d="M716 222 c-3 -5 1 -9 9 -9 8 0 12 4 9 9 -3 4 -7 8 -9 8 -2 0 -6 -4
-9 -8z"/>
<path d="M1880 200 c-9 -6 -10 -10 -3 -10 6 0 15 5 18 10 8 12 4 12 -15 0z"/>
<path d="M1820 185 c-8 -9 -8 -15 0 -20 6 -4 9 -1 8 7 -2 8 4 12 15 10 21 -3
23 4 3 11 -8 3 -20 0 -26 -8z"/>
<path d="M1790 171 c0 -6 4 -13 10 -16 6 -3 7 1 4 9 -7 18 -14 21 -14 7z"/>
<path d="M930 125 c0 -8 4 -15 10 -15 5 0 7 7 4 15 -4 8 -8 15 -10 15 -2 0 -4
-7 -4 -15z"/>
<path d="M990 116 c0 -3 9 -10 20 -16 11 -6 20 -8 20 -6 0 3 -9 10 -20 16 -11
6 -20 8 -20 6z"/>
<path d="M1597 113 c-10 -9 -9 -23 1 -23 5 0 9 7 9 15 0 17 -1 18 -10 8z"/>
<path d="M1180 90 c-9 -6 -10 -10 -3 -10 6 0 15 5 18 10 8 12 4 12 -15 0z"/>
<path d="M1110 86 c0 -2 7 -7 16 -10 8 -3 12 -2 9 4 -6 10 -25 14 -25 6z"/>
<path d="M1515 80 c-3 -5 -1 -10 4 -10 6 0 11 5 11 10 0 6 -2 10 -4 10 -3 0
-8 -4 -11 -10z"/>
<path d="M1260 60 c-8 -5 0 -7 18 -7 17 1 29 4 26 6 -8 9 -31 9 -44 1z"/>
</g>
</svg>
